<svg width="341" height="344" viewBox="0 0 341 344" fill="none" xmlns="http://www.w3.org/2000/svg">
<path d="M279.105 200.661C266.332 248.06 223.021 282.963 171.556 282.963C110.055 282.963 60.1845 233.104 60.1845 171.568C60.1845 110.067 110.044 60.1961 171.556 60.1961C219.521 60.1961 260.36 90.4789 276.045 132.958C256.11 129.643 233.647 129.516 214.752 137.046C195.048 144.865 180.738 159.025 168.322 175.564C181.096 146.887 201.354 127.091 233.912 121.489C224.28 114.051 210.917 113.22 202.532 115.114C181.824 119.826 166.833 131.976 157.05 150.548C146.713 170.159 142.706 191.468 141.493 213.389C141.458 213.955 142.059 214.544 142.382 215.19C143.214 215.04 143.988 215.075 144.542 214.775C157.131 207.903 170.759 204.138 184.538 200.58C194.586 197.97 204.565 194.956 214.278 191.341C224.141 187.633 231.429 180.761 236.118 171.071C240.114 162.836 242.401 154.244 242.667 145.143C242.782 141.204 244.237 139.183 248.06 138.063C256.769 135.51 265.604 134.275 274.67 134.332C274.971 134.332 275.733 134.367 276.564 134.367H278.967H339.082C322.127 57.505 253.569 0 171.568 0C76.8158 0 0 76.8273 0 171.568C0 266.343 76.8273 343.17 171.568 343.17C256.422 343.17 326.897 281.577 340.71 200.661H279.105Z" fill="#224C22"/>
</svg>
